<!DOCTYPE svg PUBLIC "-//W3C//DTD SVG 1.1//EN" "http://www.w3.org/Graphics/SVG/1.1/DTD/svg11.dtd">
<!-- Uploaded to: SVG Repo, www.svgrepo.com, Transformed by: SVG Repo Mixer Tools -->
<svg fill="#654fbf" height="800px" width="800px" version="1.1" id="Layer_1" xmlns="http://www.w3.org/2000/svg" xmlns:xlink="http://www.w3.org/1999/xlink" viewBox="0 0 512.006 512.006" xml:space="preserve" stroke="#654fbf">
<g id="SVGRepo_bgCarrier" stroke-width="0"/>
<g id="SVGRepo_tracerCarrier" stroke-linecap="round" stroke-linejoin="round"/>
<g id="SVGRepo_iconCarrier"> <g> <g> <g> <path d="M466.113,261.564c-0.002-0.011-0.004-0.022-0.005-0.032c-0.237-1.353-0.495-2.698-0.758-4.042 c-0.069-0.355-0.133-0.711-0.204-1.065c-0.235-1.169-0.487-2.331-0.741-3.493c-0.115-0.529-0.226-1.059-0.345-1.586 c-0.236-1.041-0.486-2.076-0.736-3.11c-0.157-0.649-0.312-1.299-0.475-1.945c-0.236-0.935-0.483-1.865-0.731-2.794 c-0.199-0.747-0.398-1.494-0.605-2.237c-0.234-0.841-0.477-1.679-0.722-2.516c-0.243-0.831-0.488-1.662-0.74-2.489 c-0.23-0.754-0.466-1.505-0.704-2.256c-0.289-0.91-0.583-1.818-0.884-2.723c-0.223-0.67-0.448-1.338-0.678-2.005 c-0.339-0.987-0.686-1.97-1.039-2.951c-0.211-0.585-0.422-1.17-0.638-1.752c-0.395-1.068-0.801-2.13-1.212-3.19 c-0.192-0.493-0.382-0.987-0.577-1.478c-0.462-1.163-0.937-2.32-1.419-3.473c-0.161-0.385-0.319-0.771-0.482-1.155 c-0.544-1.281-1.103-2.554-1.672-3.822c-0.115-0.256-0.227-0.514-0.343-0.77c-0.658-1.452-1.332-2.895-2.021-4.33 c-0.034-0.07-0.066-0.142-0.1-0.212c-4.475-9.286-9.601-18.19-15.317-26.657c-0.091-0.134-0.184-0.267-0.275-0.401 c-0.838-1.235-1.687-2.462-2.55-3.679c-0.191-0.269-0.386-0.535-0.578-0.804c-0.767-1.071-1.542-2.136-2.328-3.192 c-0.272-0.366-0.548-0.728-0.823-1.092c-0.713-0.945-1.432-1.886-2.161-2.818c-0.345-0.442-0.693-0.88-1.041-1.319 c-0.664-0.836-1.333-1.669-2.009-2.495c-0.017-0.021-0.034-0.042-0.051-0.063c3.467-3.856,5.472-8.898,5.472-14.25v-128 c0-10.731-7.957-19.776-18.603-21.163c-10.432-1.493-20.629,5.355-23.36,15.744c-13.184,50.112-51.605,70.976-53.248,71.829 c-3.614,1.918-6.55,4.815-8.539,8.262c-7.089-2.338-14.343-4.312-21.739-5.904c-0.081-0.017-0.161-0.035-0.242-0.053 c-1.45-0.31-2.905-0.605-4.366-0.886c-0.248-0.048-0.497-0.096-0.746-0.143c-1.333-0.251-2.671-0.49-4.013-0.717 c-0.388-0.066-0.776-0.129-1.164-0.193c-1.234-0.201-2.47-0.394-3.71-0.573c-0.509-0.074-1.019-0.144-1.529-0.214 c-1.145-0.158-2.291-0.31-3.441-0.449c-0.623-0.076-1.248-0.144-1.873-0.214c-1.058-0.119-2.115-0.236-3.178-0.339 c-0.738-0.072-1.48-0.133-2.22-0.197c-0.966-0.084-1.932-0.17-2.901-0.241c-0.874-0.064-1.753-0.113-2.63-0.167 c-0.852-0.052-1.702-0.11-2.557-0.151c-1.072-0.052-2.149-0.086-3.225-0.123c-0.676-0.023-1.35-0.055-2.028-0.072 c-1.764-0.043-3.532-0.067-5.306-0.067c-1.774,0-3.542,0.024-5.306,0.067c-0.681,0.017-1.357,0.049-2.036,0.072 c-1.073,0.036-2.146,0.07-3.215,0.122c-0.857,0.042-1.71,0.1-2.564,0.152c-0.875,0.053-1.75,0.102-2.622,0.166 c-0.971,0.071-1.938,0.157-2.906,0.241c-0.739,0.064-1.478,0.125-2.214,0.197c-1.067,0.104-2.129,0.221-3.191,0.34 c-0.619,0.07-1.238,0.137-1.855,0.212c-1.158,0.14-2.311,0.293-3.463,0.452c-0.501,0.069-1.003,0.138-1.503,0.21 c-1.25,0.181-2.497,0.375-3.74,0.578c-0.376,0.062-0.752,0.123-1.128,0.187c-1.354,0.228-2.704,0.469-4.049,0.723 c-0.235,0.044-0.469,0.09-0.703,0.135c-1.477,0.284-2.948,0.581-4.413,0.895c-0.06,0.013-0.119,0.026-0.179,0.039 c-7.427,1.598-14.71,3.58-21.827,5.928c-1.993-3.454-4.934-6.358-8.542-8.279c-1.643-0.853-40.064-21.717-53.248-71.829 c-2.731-10.389-12.949-17.237-23.36-15.744C93.294,1.591,85.336,10.636,85.336,21.367v128c0,5.365,2.015,10.431,5.491,14.29 c-0.121,0.148-0.239,0.299-0.36,0.447c-0.403,0.495-0.802,0.992-1.201,1.491c-0.61,0.763-1.217,1.529-1.817,2.301 c-0.439,0.564-0.871,1.133-1.304,1.701c-0.552,0.726-1.104,1.452-1.647,2.185c-0.47,0.634-0.933,1.275-1.396,1.914 c-0.497,0.686-0.995,1.371-1.484,2.063c-0.5,0.707-0.989,1.422-1.48,2.135c-0.441,0.641-0.886,1.28-1.321,1.927 c-0.536,0.797-1.059,1.602-1.584,2.406c-0.378,0.58-0.762,1.155-1.135,1.739c-0.601,0.94-1.187,1.891-1.774,2.841 c-0.284,0.461-0.576,0.916-0.856,1.379c-0.845,1.392-1.674,2.795-2.487,4.208c-0.017,0.03-0.035,0.059-0.052,0.089 c-0.838,1.457-1.658,2.926-2.463,4.405c-0.214,0.394-0.419,0.794-0.631,1.19c-0.574,1.072-1.147,2.146-1.704,3.229 c-0.298,0.581-0.585,1.168-0.878,1.752c-0.454,0.905-0.91,1.809-1.352,2.722c-0.327,0.675-0.643,1.357-0.963,2.036 c-0.389,0.826-0.78,1.651-1.159,2.482c-0.341,0.748-0.671,1.502-1.003,2.254c-0.339,0.768-0.68,1.536-1.01,2.309 c-0.347,0.811-0.683,1.627-1.02,2.443c-0.296,0.718-0.593,1.436-0.882,2.159c-0.349,0.872-0.688,1.748-1.026,2.625 c-0.258,0.671-0.515,1.341-0.766,2.015c-0.347,0.931-0.686,1.865-1.021,2.802c-0.222,0.622-0.442,1.245-0.658,1.869 c-0.344,0.993-0.681,1.99-1.011,2.99c-0.187,0.566-0.37,1.134-0.553,1.702c-0.34,1.061-0.674,2.125-0.998,3.193 c-0.153,0.503-0.301,1.009-0.45,1.514c-0.336,1.138-0.665,2.278-0.982,3.423c-0.118,0.426-0.231,0.854-0.347,1.281 c-0.331,1.224-0.655,2.451-0.964,3.683c-0.084,0.335-0.163,0.671-0.246,1.007c-0.326,1.327-0.645,2.656-0.946,3.993 c-0.046,0.205-0.089,0.412-0.135,0.618c-0.326,1.465-0.641,2.934-0.936,4.411c0,0.001,0,0.003-0.001,0.004 c-2.721,13.603-4.157,27.671-4.157,42.075c0,117.83,95.503,213.333,213.333,213.333s213.333-95.503,213.333-213.333 C469.336,286.014,468.227,273.616,466.113,261.564z M88.712,264.752c0.143-0.707,0.297-1.41,0.448-2.114 c0.131-0.61,0.26-1.22,0.398-1.828c0.15-0.664,0.309-1.325,0.467-1.987c0.155-0.647,0.311-1.294,0.473-1.938 c0.157-0.626,0.319-1.25,0.484-1.873c0.181-0.688,0.367-1.374,0.557-2.058c0.16-0.578,0.322-1.156,0.488-1.732 c0.216-0.748,0.44-1.494,0.666-2.238c0.154-0.508,0.306-1.017,0.465-1.522c0.275-0.876,0.561-1.747,0.849-2.617 c0.124-0.372,0.243-0.747,0.369-1.118c0.864-2.543,1.785-5.059,2.764-7.547c0.07-0.177,0.143-0.352,0.213-0.529 c0.421-1.058,0.85-2.112,1.291-3.16c0.123-0.292,0.25-0.582,0.375-0.873c0.4-0.935,0.805-1.866,1.221-2.792 c0.144-0.321,0.291-0.641,0.438-0.962c0.41-0.899,0.828-1.794,1.253-2.685c0.152-0.317,0.304-0.635,0.457-0.951 c0.441-0.908,0.89-1.81,1.346-2.709c0.144-0.283,0.286-0.566,0.431-0.848c0.499-0.97,1.009-1.933,1.526-2.892 c0.108-0.201,0.214-0.404,0.323-0.604c1.287-2.363,2.626-4.693,4.019-6.987c0.029-0.048,0.06-0.095,0.089-0.143 c0.641-1.053,1.294-2.097,1.956-3.134c0.207-0.323,0.419-0.643,0.628-0.965c0.489-0.755,0.982-1.507,1.483-2.253 c0.279-0.415,0.562-0.828,0.844-1.241c0.438-0.641,0.88-1.279,1.326-1.914c0.328-0.466,0.659-0.931,0.992-1.394 c0.404-0.562,0.813-1.121,1.224-1.679c0.376-0.509,0.751-1.017,1.132-1.521c0.364-0.482,0.733-0.959,1.101-1.437 c0.434-0.563,0.867-1.126,1.309-1.683c0.274-0.347,0.555-0.689,0.832-1.033c3.535-4.391,7.275-8.607,11.218-12.622 c0.008-0.009,0.017-0.017,0.025-0.026c25.877-26.344,60.193-44.267,98.372-49.529c0.298-0.041,0.596-0.086,0.894-0.125 c0.848-0.112,1.699-0.212,2.551-0.312c0.516-0.06,1.031-0.121,1.549-0.177c0.75-0.081,1.502-0.154,2.255-0.225 c0.634-0.06,1.268-0.116,1.904-0.169c0.678-0.056,1.357-0.11,2.038-0.158c0.735-0.052,1.472-0.097,2.21-0.14 c0.606-0.035,1.211-0.072,1.819-0.101c0.87-0.041,1.743-0.071,2.616-0.099c0.49-0.016,0.979-0.037,1.47-0.049 c1.374-0.033,2.751-0.052,4.132-0.052c1.382,0,2.759,0.02,4.133,0.052c0.49,0.012,0.977,0.033,1.466,0.049 c0.875,0.028,1.75,0.058,2.622,0.1c0.606,0.029,1.211,0.065,1.815,0.101c0.739,0.043,1.477,0.088,2.214,0.14 c0.679,0.048,1.356,0.102,2.033,0.158c0.639,0.053,1.276,0.11,1.913,0.17c0.749,0.071,1.498,0.144,2.245,0.224 c0.523,0.056,1.044,0.118,1.566,0.179c0.845,0.099,1.689,0.198,2.53,0.31c0.313,0.041,0.625,0.088,0.938,0.131 c35.605,4.914,67.848,20.84,93.018,44.334c0.1,0.094,0.201,0.187,0.301,0.281c0.725,0.68,1.443,1.369,2.156,2.061 c0.222,0.216,0.443,0.431,0.664,0.648c0.634,0.622,1.263,1.249,1.887,1.881c0.303,0.307,0.603,0.616,0.903,0.925 c0.556,0.571,1.11,1.144,1.658,1.723c0.39,0.412,0.774,0.83,1.16,1.246c0.461,0.497,0.923,0.992,1.378,1.494 c0.637,0.704,1.265,1.416,1.89,2.13c0.202,0.231,0.408,0.457,0.609,0.689c0.862,0.996,1.713,2.002,2.552,3.018 c0.098,0.118,0.193,0.239,0.291,0.358c0.746,0.908,1.484,1.823,2.212,2.746c0.135,0.172,0.268,0.346,0.403,0.518 c0.694,0.888,1.381,1.782,2.058,2.684c0.124,0.165,0.246,0.331,0.369,0.496c0.695,0.934,1.383,1.875,2.059,2.824 c0.089,0.125,0.178,0.249,0.266,0.374c0.734,1.036,1.459,2.079,2.171,3.132c0.023,0.034,0.046,0.067,0.069,0.101 c9.164,13.573,16.427,28.536,21.407,44.506c0.045,0.145,0.088,0.29,0.133,0.435c0.345,1.117,0.678,2.238,1.001,3.365 c0.083,0.289,0.163,0.578,0.244,0.868c0.277,0.986,0.544,1.977,0.804,2.97c0.096,0.37,0.193,0.74,0.287,1.111 c0.235,0.924,0.459,1.852,0.679,2.782c0.097,0.413,0.197,0.826,0.291,1.241c0.206,0.904,0.401,1.812,0.592,2.721 c0.091,0.431,0.186,0.86,0.274,1.293c0.025,0.123,0.046,0.247,0.071,0.37l-123.272,46.942 c-14.076,5.385-28.995,8.118-44.056,8.118c-15.012,0-29.927-2.738-44.057-8.118L88.675,264.946 C88.687,264.881,88.699,264.817,88.712,264.752z M256.003,469.339c-90.64,0-164.75-70.641-170.317-159.876l111.078,42.298 c18.984,7.229,39.044,10.911,59.24,10.911c20.251,0,40.338-3.68,59.27-10.923l111.047-42.287 C420.753,398.699,346.643,469.339,256.003,469.339z"/> <path d="M298.67,405.339h-85.333c-11.782,0-21.333,9.551-21.333,21.333s9.551,21.333,21.333,21.333h85.333 c11.782,0,21.333-9.551,21.333-21.333S310.452,405.339,298.67,405.339z"/> <path d="M234.115,229.766c-1.707-7.189-6.997-12.992-14.037-15.339l-64-21.333c-9.387-3.093-19.691,0.619-24.896,9.024 c-5.205,8.427-3.925,19.307,3.072,26.304l42.667,42.667c4.16,4.16,9.621,6.251,15.083,6.251c5.461,0,10.923-2.091,15.083-6.251 l21.333-21.333C233.645,244.528,235.8,236.955,234.115,229.766z"/> <path d="M304.918,271.088c4.16,4.16,9.621,6.251,15.083,6.251c5.461,0,10.923-2.091,15.083-6.251l42.667-42.667 c6.997-6.997,8.277-17.877,3.072-26.304c-5.205-8.405-15.509-12.117-24.896-9.024l-64,21.333 c-7.04,2.347-12.331,8.149-14.037,15.339c-1.685,7.189,0.469,14.763,5.696,19.989L304.918,271.088z"/> </g> </g> </g> </g>
</svg>